<svg width="17" height="16" viewBox="0 0 17 16" fill="none" xmlns="http://www.w3.org/2000/svg">
<path d="M15.7771 8C15.7771 12.1425 12.4216 15.5 8.28308 15.5C4.1446 15.5 0.789062 12.1425 0.789062 8C0.789062 3.85751 4.1446 0.5 8.28308 0.5C12.4216 0.5 15.7771 3.85751 15.7771 8Z" stroke="#9D5CD0"/>
<path d="M7.5465 6.4551H9.02232V13H7.5465V6.4551ZM8.28441 4.90259C7.99744 4.90259 7.7566 4.81126 7.56187 4.62861C7.3774 4.44597 7.28516 4.22273 7.28516 3.9589C7.28516 3.69508 7.3774 3.47184 7.56187 3.28919C7.7566 3.0964 7.99744 3 8.28441 3C8.57137 3 8.80709 3.09132 8.99157 3.27397C9.1863 3.44647 9.28366 3.66464 9.28366 3.92846C9.28366 4.20243 9.1863 4.43582 8.99157 4.62861C8.80709 4.81126 8.57137 4.90259 8.28441 4.90259Z" fill="black"/>
</svg>
